<svg xmlns="http://www.w3.org/2000/svg" xmlns:xlink="http://www.w3.org/1999/xlink" width="500" zoomAndPan="magnify" viewBox="0 0 375 374.999991" height="500" preserveAspectRatio="xMidYMid meet" version="1.0"><path fill="#ffffff" d="M 74.828125 307.359375 L 79.074219 311.558594 L 79.5 311.984375 C 92.710938 325.671875 92.566406 347.714844 79.074219 361.210938 C 65.582031 374.710938 43.546875 374.851562 29.863281 361.636719 L 29.441406 361.210938 L 25.195312 357.011719 L 13.636719 345.402344 C 0 331.761719 0 309.433594 13.636719 295.746094 C 27.269531 282.105469 49.632812 282.105469 63.269531 295.746094 Z M 308.9375 115.253906 L 313.042969 111.148438 L 317.757812 106.429688 L 361.023438 63.148438 C 374.660156 49.507812 374.660156 27.179688 361.023438 13.492188 C 347.339844 -0.148438 325.023438 -0.148438 311.390625 13.492188 L 268.125 56.777344 L 263.40625 61.496094 L 259.304688 65.601562 L 234.484375 90.429688 C 220.851562 104.070312 220.851562 126.394531 234.484375 140.082031 L 259.304688 164.910156 L 263.738281 169.300781 L 311.71875 217.300781 C 325.355469 230.941406 347.671875 230.941406 361.355469 217.300781 C 374.988281 203.660156 374.988281 181.289062 361.355469 167.648438 L 313.371094 119.644531 Z M 15.617188 13.824219 L 15.617188 13.777344 C 29.25 0.136719 51.617188 0.136719 65.25 13.777344 L 360.695312 309.386719 C 374.375 323.027344 374.375 345.402344 360.695312 359.042969 C 347.058594 372.683594 324.742188 372.683594 311.058594 359.042969 L 15.617188 63.429688 C 1.980469 49.789062 1.980469 27.464844 15.617188 13.824219 Z M 15.191406 155.328125 C 28.828125 141.6875 51.144531 141.6875 64.824219 155.328125 L 98.464844 188.980469 L 171.265625 261.808594 L 219.246094 309.8125 C 232.882812 323.453125 232.882812 345.824219 219.246094 359.464844 C 205.566406 373.105469 183.25 373.105469 169.613281 359.464844 L 121.632812 311.464844 L 48.832031 238.636719 L 15.191406 204.980469 C 1.558594 191.339844 1.558594 168.96875 15.191406 155.328125 Z M 15.191406 155.328125 " fill-opacity="1" fill-rule="evenodd"/></svg>